<svg width="949" height="607" viewBox="0 0 949 607" fill="none" xmlns="http://www.w3.org/2000/svg">
<path d="M1 85.7926C48.3333 35.7926 189.2 -44.6074 374 33.7926C605 131.793 778 198.793 949 116.293" stroke="#EFF5FB"/>
<path d="M1 116.585C48.3333 66.585 189.2 -13.815 374 64.585C605 162.585 778 229.585 949 147.085" stroke="#EFF5FB"/>
<path d="M1 147.378C48.3333 97.3775 189.2 16.9775 374 95.3775C605 193.378 778 260.377 949 177.878" stroke="#EFF5FB"/>
<path d="M1 178.17C48.3333 128.17 189.2 47.7702 374 126.17C605 224.17 778 291.17 949 208.67" stroke="#EFF5FB"/>
<path d="M1 208.963C48.3333 158.963 189.2 78.5627 374 156.963C605 254.963 778 321.963 949 239.463" stroke="#EFF5FB"/>
<path d="M1 239.755C48.3333 189.755 189.2 109.355 374 187.755C605 285.755 778 352.755 949 270.255" stroke="#EFF5FB"/>
<path d="M1 270.548C48.3333 220.548 189.2 140.148 374 218.548C605 316.548 778 383.548 949 301.048" stroke="#EFF5FB"/>
<path d="M1 301.34C48.3333 251.34 189.2 170.94 374 249.34C605 347.34 778 414.34 949 331.84" stroke="#EFF5FB"/>
<path d="M1 332.133C48.3333 282.133 189.2 201.733 374 280.133C605 378.133 778 445.133 949 362.633" stroke="#EFF5FB"/>
<path d="M1 361.793C48.3333 311.793 189.2 231.393 374 309.793C605 407.793 778 474.793 949 392.293" stroke="#EFF5FB"/>
<path d="M1 391.452C48.3333 341.452 189.2 261.052 374 339.452C605 437.452 778 504.452 949 421.952" stroke="#EFF5FB"/>
<path d="M1 421.112C48.3333 371.112 189.2 290.712 374 369.112C605 467.112 778 534.112 949 451.612" stroke="#EFF5FB"/>
<path d="M1 450.772C48.3333 400.772 189.2 320.372 374 398.772C605 496.772 778 563.772 949 481.272" stroke="#EFF5FB"/>
<path d="M1 480.431C48.3333 430.431 189.2 350.031 374 428.431C605 526.431 778 593.431 949 510.931" stroke="#EFF5FB"/>
<path d="M1 510.091C48.3333 460.091 189.2 379.691 374 458.091C605 556.091 778 623.091 949 540.591" stroke="#EFF5FB"/>
<path d="M1 539.751C48.3333 489.751 189.2 409.351 374 487.751C605 585.751 778 652.751 949 570.251" stroke="#EFF5FB"/>
<path d="M1 569.41C48.3333 519.41 189.2 439.01 374 517.41C605 615.41 778 682.41 949 599.91" stroke="#EFF5FB"/>
<path d="M1 599.07C48.3333 549.07 189.2 468.67 374 547.07C605 645.07 778 712.07 949 629.57" stroke="#EFF5FB"/>
<path d="M1 628.73C48.3333 578.73 189.2 498.33 374 576.73C605 674.73 778 741.73 949 659.23" stroke="#EFF5FB"/>
<path d="M1 658.389C48.3333 608.389 189.2 527.989 374 606.389C605 704.389 778 771.389 949 688.889" stroke="#EFF5FB"/>
<path d="M1 688.049C48.3333 638.049 189.2 557.649 374 636.049C605 734.049 778 801.049 949 718.549" stroke="#EFF5FB"/>
</svg>
